<svg xmlns="http://www.w3.org/2000/svg" xmlns:xlink="http://www.w3.org/1999/xlink" viewBox="0 0 1920 735"><defs><style>.cls-1{fill:#fff;stroke:#000;stroke-miterlimit:10;stroke-width:5px;}.cls-2{font-size:29px;letter-spacing:0.02em;}.cls-2,.cls-6{font-family:Cambria, Cambria;}.cls-3{letter-spacing:0.03em;}.cls-4{letter-spacing:-0.05em;}.cls-5{letter-spacing:0.01em;}.cls-6{font-size:45px;letter-spacing:0.03em;}.cls-7{letter-spacing:-0.01em;}.cls-8{letter-spacing:0.02em;}.cls-9{letter-spacing:0.02em;}</style></defs><title>hero-svg</title><g id="Layer_1" data-name="Layer 1"><image width="1920" height="735" xlink:href="hero.jpg"/></g><g id="coffee-contact"><path class="cls-1" d="M86,243.33S97.33,392.67,108.67,406s78,58.67,130,0V355.33s36-17.33,44-33.33,20-42.67-2.67-56c0,0-30,5.33-35.33,18,0,0,2.66-37.33-4.67-51.33S218.67,208,150,221.33,97.33,237.33,86,243.33Z"/><text class="cls-2" transform="matrix(1, -0.07, 0.07, 1, 109.12, 335.95)">C<tspan class="cls-3" x="16.87" y="0">ON</tspan><tspan class="cls-4" x="57" y="0">T</tspan><tspan class="cls-5" x="72.62" y="0">A</tspan><tspan class="cls-3" x="90.95" y="0">CT</tspan></text></g><g id="frame-about"><path class="cls-1" d="M1638,114.67c10.67,1.33,186,60,186,60l8.67,18.66-34,84.67s-8.67,49.33-7.34,68,14,29.33-30,41.33L1750.67,414l-15.34,8.67L1554.67,367.5Z"/><text class="cls-6" transform="translate(1630.27 210.89) rotate(19.58)">ABOUT<tspan x="40.79" y="54">ME</tspan></text></g><g id="laptop-portfolio"><path class="cls-1" d="M354.67,71.33c8.66-3.84,488.66-54,496-36.66s27.33,286.66,10,298S753.33,358,753.33,358l-.66,9.5s86-16.17,92-9.5S912,608,908,617.33s0,30.67-12,33.34-525.33,34.66-534,28.66-19.33-16-20-27.33,40-223.33,40-223.33-4-32.67.67-36,110-10.67,110-10.67l-.67-6.67s-107.33,15-114-19.83S336.67,79.33,354.67,71.33Z"/><text class="cls-6" transform="translate(485.78 235.23) rotate(-4.59)">PO<tspan class="cls-7" x="57.2" y="0">R</tspan><tspan x="84.87" y="0">T</tspan><tspan class="cls-8" x="112.67" y="0">F</tspan><tspan x="137.61" y="0">OLIO</tspan></text></g><g id="skills-book"><path class="cls-1" d="M984,570c-14.77,1,118.67-207.33,134-208.67s79.33-16.66,164,60c0,0,29.33-11.33,53.33-3.33S1466,469.33,1466,469.33V480l11.33,5.33S1354,701.33,1342,702s-184.67-75.33-184.67-75.33S1067,564.59,984,570Z"/><text class="cls-6" transform="translate(1257.65 480.25) rotate(26.33)">SKIL<tspan class="cls-9" x="93.88" y="0">L</tspan><tspan x="118.85" y="0">S</tspan></text></g></svg>